<svg width="110" height="20" viewBox="0 0 110 20" fill="none" xmlns="http://www.w3.org/2000/svg">
<g clip-path="url(#clip0_549_724)">
<path fill-rule="evenodd" clip-rule="evenodd" d="M0.243513 0C0.109025 0 0 0.108668 0 0.242718V10V13.1068V16.3592C0 16.4933 0.109025 16.6019 0.243513 16.6019H1.9481C2.08259 16.6019 2.19162 16.4933 2.19162 16.3592V13.3495V2.76699L6.52615 5.14563V10.9223H5.72256C5.11738 10.9223 4.62675 11.4114 4.62675 12.0146C4.62675 12.6178 5.11738 13.1068 5.72256 13.1068H6.52615V13.3495V19.7573C6.52615 19.8913 6.63519 20 6.76966 20H8.42555C8.56002 20 8.66906 19.8913 8.66906 19.7573V13.349C11.9573 13.3056 14.6108 10.3341 14.6108 6.67476C14.6108 2.98839 11.9179 0 8.59601 0C8.53547 0 8.47513 0.000992704 8.41503 0.00296424C8.40256 0.00101307 8.38985 0 8.37685 0H0.243513Z" fill="#0770CD"/>
</g>
<path d="M24.9573 1.25H31.7927C32.7457 1.25 33.6466 1.33681 34.4957 1.51042C35.3447 1.68403 36.0811 1.98785 36.7048 2.42187C37.3459 2.83854 37.8484 3.41146 38.2123 4.14063C38.5934 4.85243 38.784 5.75521 38.784 6.84896C38.784 7.92535 38.6108 8.82812 38.2642 9.55729C37.9177 10.2865 37.4412 10.8681 36.8348 11.3021C36.2283 11.7361 35.5093 12.0486 34.6776 12.2396C33.8459 12.4132 32.9449 12.5 31.9746 12.5H29.0117V19.6875H24.9573V1.25ZM29.0117 9.0625H31.7147C32.0786 9.0625 32.4251 9.02778 32.7543 8.95833C33.1009 8.88889 33.4041 8.77604 33.664 8.61979C33.9412 8.44618 34.1578 8.22049 34.3137 7.94271C34.487 7.64757 34.5736 7.28299 34.5736 6.84896C34.5736 6.38021 34.461 6.00694 34.2358 5.72917C34.0278 5.43403 33.7506 5.20833 33.4041 5.05208C33.0749 4.89583 32.7023 4.80035 32.2865 4.76562C31.8707 4.71354 31.4721 4.6875 31.091 4.6875H29.0117V9.0625Z" fill="#222222"/>
<path d="M48.7612 18.099H48.7092C48.2761 18.776 47.6956 19.2622 46.9679 19.5573C46.2575 19.8524 45.5038 20 44.7067 20C44.1176 20 43.5458 19.9132 42.9914 19.7396C42.4543 19.5833 41.9778 19.3403 41.5619 19.0104C41.1461 18.6806 40.8169 18.2726 40.5743 17.7865C40.3317 17.3003 40.2104 16.7361 40.2104 16.0938C40.2104 15.3646 40.3404 14.7483 40.6003 14.2448C40.8775 13.7413 41.2414 13.3247 41.6919 12.9948C42.1597 12.6649 42.6882 12.4132 43.2773 12.2396C43.8664 12.0486 44.4728 11.9097 45.0966 11.8229C45.7377 11.7361 46.3701 11.684 46.9939 11.6667C47.635 11.6493 48.2241 11.6406 48.7612 11.6406C48.7612 10.9462 48.51 10.3993 48.0075 10C47.5223 9.58333 46.9419 9.375 46.2662 9.375C45.6251 9.375 45.0359 9.51389 44.4988 9.79167C43.979 10.0521 43.5112 10.4167 43.0954 10.8854L41.0161 8.75C41.7439 8.07292 42.5929 7.56944 43.5632 7.23958C44.5335 6.89236 45.5384 6.71875 46.578 6.71875C47.7216 6.71875 48.6572 6.86632 49.385 7.16146C50.13 7.43924 50.7191 7.8559 51.1523 8.41146C51.6028 8.96701 51.9147 9.65278 52.0879 10.4687C52.2612 11.2674 52.3478 12.1962 52.3478 13.2552V19.6875H48.7612V18.099ZM47.7996 14.1406C47.505 14.1406 47.1325 14.158 46.682 14.1927C46.2488 14.2101 45.8243 14.2795 45.4085 14.401C45.01 14.5226 44.6634 14.7049 44.3689 14.9479C44.0916 15.191 43.953 15.5295 43.953 15.9635C43.953 16.4323 44.1523 16.7795 44.5508 17.0052C44.9493 17.2309 45.3652 17.3437 45.7983 17.3437C46.1795 17.3437 46.5434 17.2917 46.8899 17.1875C47.2538 17.0833 47.5743 16.9358 47.8515 16.7448C48.1288 16.5538 48.3454 16.3108 48.5013 16.0156C48.6746 15.7205 48.7612 15.3733 48.7612 14.974V14.1406H47.7996Z" fill="#222222"/>
<path d="M54.7938 0H58.6923V12.0312L63.0067 7.03125H67.7888L62.7727 12.7344L67.9188 19.6875H63.0067L58.7443 13.2812H58.6923V19.6875H54.7938V0Z" fill="#222222"/>
<path d="M69.2356 0H73.1341V12.0312L77.4484 7.03125H82.2306L77.2145 12.7344L82.3606 19.6875H77.4484L73.1861 13.2812H73.1341V19.6875H69.2356V0Z" fill="#222222"/>
<path d="M83.2095 13.3594C83.2095 12.3524 83.3915 11.441 83.7553 10.625C84.1192 9.80903 84.613 9.11458 85.2368 8.54167C85.8778 7.95139 86.6229 7.5 87.4719 7.1875C88.3382 6.875 89.2566 6.71875 90.2269 6.71875C91.1972 6.71875 92.1068 6.875 92.9558 7.1875C93.8222 7.5 94.5672 7.95139 95.191 8.54167C95.8321 9.11458 96.3345 9.80903 96.6984 10.625C97.0623 11.441 97.2442 12.3524 97.2442 13.3594C97.2442 14.3663 97.0623 15.2778 96.6984 16.0938C96.3345 16.9097 95.8321 17.6128 95.191 18.2031C94.5672 18.776 93.8222 19.2187 92.9558 19.5312C92.1068 19.8437 91.1972 20 90.2269 20C89.2566 20 88.3382 19.8437 87.4719 19.5312C86.6229 19.2187 85.8778 18.776 85.2368 18.2031C84.613 17.6128 84.1192 16.9097 83.7553 16.0938C83.3915 15.2778 83.2095 14.3663 83.2095 13.3594ZM87.108 13.3594C87.108 14.3142 87.3766 15.0868 87.9137 15.6771C88.4682 16.2674 89.2392 16.5625 90.2269 16.5625C91.2145 16.5625 91.9769 16.2674 92.514 15.6771C93.0685 15.0868 93.3457 14.3142 93.3457 13.3594C93.3457 12.4045 93.0685 11.6319 92.514 11.0417C91.9769 10.4514 91.2145 10.1562 90.2269 10.1562C89.2392 10.1562 88.4682 10.4514 87.9137 11.0417C87.3766 11.6319 87.108 12.4045 87.108 13.3594Z" fill="#222222"/>
<path d="M106.688 10.7552C106.116 10.0434 105.362 9.6875 104.427 9.6875C104.097 9.6875 103.777 9.76562 103.465 9.92187C103.153 10.0781 102.997 10.3472 102.997 10.7292C102.997 11.0417 103.153 11.276 103.465 11.4323C103.794 11.5712 104.201 11.7014 104.687 11.8229C105.189 11.9271 105.717 12.0486 106.272 12.1875C106.844 12.309 107.372 12.5087 107.857 12.7865C108.36 13.0642 108.767 13.4462 109.079 13.9323C109.408 14.401 109.573 15.0347 109.573 15.8333C109.573 16.6493 109.391 17.3264 109.027 17.8646C108.68 18.3854 108.23 18.8108 107.675 19.1406C107.121 19.4531 106.497 19.6701 105.804 19.7917C105.111 19.9306 104.427 20 103.751 20C102.867 20 101.975 19.8785 101.074 19.6354C100.173 19.375 99.4105 18.9236 98.7868 18.2812L101.152 15.651C101.516 16.1024 101.914 16.4497 102.347 16.6927C102.798 16.9184 103.318 17.0312 103.907 17.0312C104.357 17.0312 104.764 16.9705 105.128 16.849C105.492 16.7101 105.674 16.467 105.674 16.1198C105.674 15.7899 105.51 15.5469 105.18 15.3906C104.868 15.217 104.461 15.0781 103.959 14.974C103.474 14.8524 102.945 14.7309 102.373 14.6094C101.819 14.4705 101.29 14.2708 100.788 14.0104C100.303 13.75 99.8957 13.3854 99.5665 12.9167C99.2546 12.4306 99.0986 11.7882 99.0986 10.9896C99.0986 10.2431 99.2459 9.60069 99.5405 9.0625C99.8524 8.52431 100.251 8.0816 100.736 7.73437C101.239 7.38715 101.81 7.13542 102.451 6.97917C103.092 6.80556 103.742 6.71875 104.401 6.71875C105.232 6.71875 106.073 6.84028 106.922 7.08333C107.771 7.32639 108.49 7.76042 109.079 8.38542L106.688 10.7552Z" fill="#222222"/>
<defs>
<clipPath id="clip0_549_724">
<rect width="14.6108" height="20" fill="white"/>
</clipPath>
</defs>
</svg>
